<svg width="184" height="94" viewBox="0 0 184 94" fill="none" xmlns="http://www.w3.org/2000/svg">
<mask id="mask0" mask-type="alpha" maskUnits="userSpaceOnUse" x="0" y="0" width="184" height="94">
<rect width="184" height="94" fill="#C4C4C4"/>
</mask>
<g mask="url(#mask0)">
<path d="M146.334 67.3607C146.277 67.251 146.234 67.1228 146.228 66.9986C146.201 66.7229 146.28 66.4504 146.452 66.2456L158.351 51.5601C158.713 51.1182 159.361 51.0496 159.798 51.4026L160.63 52.0724C160.747 52.1628 160.826 52.2722 160.893 52.4001C160.949 52.5098 160.992 52.638 161.003 52.7713C161.019 52.9367 160.999 53.098 160.936 53.2461C161.068 53.1431 161.219 53.0766 161.403 53.0512C161.679 53.0245 161.896 53.1089 162.11 53.2763L163.008 54.005C163.124 54.0954 163.208 54.2139 163.27 54.3327C163.454 54.6891 163.423 55.122 163.156 55.4569C163.342 55.2565 163.537 55.0745 163.804 55.0525C164.07 55.0305 164.292 55.0551 164.501 55.2363L165.399 55.965C165.515 56.0555 165.6 56.1739 165.661 56.2927C165.845 56.6491 165.814 57.0821 165.547 57.4169C165.715 57.203 165.91 57.021 166.186 56.9942C166.461 56.9675 166.673 56.9969 166.883 57.1781L167.781 57.9068C167.897 57.9972 167.981 58.1157 168.043 58.2345C168.227 58.5909 168.196 59.0238 167.929 59.3587C168.291 58.9167 168.823 58.7577 169.265 59.1198L170.097 59.7896C170.214 59.88 170.293 59.9894 170.359 60.1173C170.416 60.227 170.459 60.3552 170.466 60.4794C170.492 60.7551 170.413 61.0276 170.241 61.2324L158.338 75.9087C157.976 76.3507 157.328 76.4192 156.891 76.0662L156.058 75.3965C155.942 75.306 155.862 75.1967 155.796 75.0688C155.739 74.9591 155.696 74.8308 155.69 74.7067C155.663 74.431 155.743 74.1585 155.915 73.9537C155.747 74.1676 155.552 74.3497 155.276 74.3764C155 74.4031 154.788 74.3738 154.579 74.1925L153.695 73.4453C153.578 73.3548 153.494 73.2363 153.433 73.1175C153.248 72.7612 153.279 72.3282 153.546 71.9934C153.379 72.2073 153.184 72.3893 152.908 72.4161C152.632 72.4428 152.42 72.4134 152.211 72.2322L151.313 71.5035C151.197 71.4131 151.112 71.2946 151.051 71.1758C150.867 70.8194 150.898 70.3865 151.164 70.0516C150.802 70.4936 150.271 70.6526 149.829 70.2905L148.931 69.5618C148.815 69.4713 148.73 69.3528 148.669 69.234C148.485 68.8776 148.516 68.4447 148.783 68.1099C148.615 68.3238 148.42 68.5058 148.144 68.5326C147.868 68.5593 147.656 68.5299 147.447 68.3487L146.614 67.679C146.494 67.6024 146.4 67.4886 146.334 67.3607Z" fill="white"/>
<path d="M169.459 60.5711L157.556 75.2475L156.724 74.5778C156.973 74.2754 157.004 73.8655 156.834 73.5365C156.777 73.4268 156.688 73.3222 156.586 73.2361C156.172 72.9058 155.575 72.9599 155.244 73.3738L154.346 72.6452C154.595 72.3427 154.627 71.9328 154.457 71.6039C154.4 71.4942 154.311 71.3896 154.209 71.3035C153.795 70.9732 153.202 71.0364 152.867 71.4412L151.969 70.7125C152.218 70.4101 152.25 70.0002 152.08 69.6712C152.023 69.5616 151.934 69.457 151.832 69.3709C151.418 69.0406 150.825 69.1038 150.49 69.5086L149.592 68.7799C149.841 68.4775 149.873 68.0676 149.702 67.7386C149.646 67.629 149.557 67.5243 149.455 67.4383C149.041 67.108 148.448 67.1712 148.113 67.576L147.28 66.9062L159.151 52.2119L159.983 52.8817C159.734 53.1841 159.703 53.594 159.873 53.923C159.93 54.0326 160.019 54.1372 160.121 54.2233C160.535 54.5536 161.132 54.4995 161.463 54.0856L162.361 54.8143C162.112 55.1167 162.08 55.5266 162.25 55.8556C162.307 55.9652 162.396 56.0699 162.498 56.1559C162.912 56.4862 163.505 56.423 163.84 56.0182L164.738 56.7469C164.489 57.0493 164.457 57.4592 164.627 57.7882C164.684 57.8979 164.773 58.0025 164.875 58.0885C165.289 58.4188 165.882 58.3556 166.217 57.9508L167.115 58.6795C166.866 58.9819 166.835 59.3918 167.005 59.7208C167.061 59.8305 167.15 59.9351 167.253 60.0211C167.666 60.3514 168.259 60.2882 168.594 59.8834L169.459 60.5711ZM171.287 59.6263C171.159 59.3796 170.986 59.1565 170.754 58.9756L169.921 58.3058C169.66 58.0931 169.355 57.95 169.032 57.8853C169.008 57.8396 168.994 57.7892 168.975 57.7527C168.847 57.5059 168.674 57.2828 168.442 57.1019L167.544 56.3732C167.283 56.1605 166.978 56.0174 166.655 55.9527C166.631 55.907 166.621 55.8657 166.598 55.82C166.47 55.5733 166.283 55.3458 166.065 55.1693L165.167 54.4406C164.902 54.2187 164.592 54.0895 164.278 54.0201C164.254 53.9744 164.244 53.9331 164.221 53.8874C164.093 53.6407 163.906 53.4132 163.687 53.2367L162.79 52.508C162.529 52.2953 162.224 52.1521 161.901 52.0875C161.877 52.0418 161.862 51.9914 161.844 51.9548C161.716 51.7081 161.543 51.485 161.31 51.3041L160.445 50.6164C159.566 49.9012 158.27 50.0383 157.555 50.9175L145.652 65.5939C145.123 66.2497 145.056 67.1294 145.42 67.8331C145.548 68.0798 145.721 68.3029 145.953 68.4838L146.786 69.1536C147.047 69.3663 147.352 69.5094 147.675 69.5741C147.699 69.6198 147.713 69.6702 147.732 69.7068C147.86 69.9535 148.033 70.1766 148.265 70.3575L149.163 71.0862C149.424 71.2989 149.729 71.4421 150.052 71.5067C150.076 71.5524 150.086 71.5937 150.109 71.6394C150.237 71.8861 150.424 72.1136 150.643 72.2901L151.54 73.0188C151.806 73.2407 152.116 73.3699 152.429 73.4393C152.453 73.485 152.463 73.5263 152.486 73.572C152.614 73.8187 152.801 74.0463 153.02 74.2228L153.917 74.9514C154.178 75.1642 154.484 75.3073 154.806 75.372C154.83 75.4176 154.845 75.4681 154.863 75.5046C154.991 75.7514 155.164 75.9745 155.397 76.1554L156.267 76.8522C157.146 77.5673 158.441 77.4303 159.156 76.5511L171.059 61.8747C171.598 61.2141 171.651 60.33 171.287 59.6263Z" fill="#2A2D34"/>
<path d="M149.227 63.4727L160.756 72.7098" stroke="#2A2D34" stroke-width="2" stroke-linecap="round" stroke-dasharray="2 3"/>
<path d="M166.169 61.4054L159.009 55.6013L153.205 62.7615L160.365 68.5656L166.169 61.4054Z" fill="#FFD530"/>
<mask id="mask1" mask-type="alpha" maskUnits="userSpaceOnUse" x="9" y="-4" width="136" height="100">
<rect x="9" y="-4" width="135.115" height="100" fill="#C4C4C4"/>
</mask>
<g mask="url(#mask1)">
<path d="M73.0933 116.623C91.349 111.753 109.849 117.407 106.736 83.284C103.623 49.1696 94.0832 60.0805 94.0832 60.0805" fill="#FFD632"/>
<path d="M73.0933 116.623C91.349 111.753 109.849 117.407 106.736 83.284C103.623 49.1696 94.0832 60.0805 94.0832 60.0805" stroke="black" stroke-width="2.0801" stroke-miterlimit="10" stroke-linecap="round" stroke-linejoin="round"/>
<path d="M111.548 69.1039C122.182 63.56 125.11 50.9472 125.673 48.5459C126.254 46.0436 127.524 37.694 124.512 28.4345C117.395 6.5368 95.4881 3.27616 83.7438 2.69481C71.9996 2.10503 50.0253 3.21719 40.603 24.2302C35.4796 35.6466 37.3641 46.5828 37.608 47.636C38.1549 49.9867 40.4347 59.8276 49.0579 65.8012C53.1885 68.6658 57.1089 69.4831 64.2766 70.9912C70.2161 72.2382 74.6748 72.4236 80.3451 72.6595C86.4528 72.9122 92.0893 73.1229 99.3748 72.0444C105.491 71.1261 108.545 70.6711 111.548 69.1039Z" fill="white"/>
<path d="M124.58 28.4339C123.932 26.7236 120.491 17.9527 111.372 11.0776C100.603 2.95553 88.8925 2.47528 83.8028 2.69434C60.3899 3.70539 47.9306 8.02762 40.6703 24.2297C36.4134 33.7335 36.2368 41.7208 37.7847 48.082C37.5492 47.231 35.9339 41.0299 39.8459 35.4439C43.4634 30.2875 49.1336 29.4534 50.2273 29.2849C53.2475 28.8384 55.704 29.4197 57.2688 29.8073C63.6709 31.3828 66.464 35.1406 68.87 33.8599C69.5515 33.4976 70.0983 32.9668 70.5694 31.0964C71.9828 25.5103 71.1078 14.4393 81.75 14.9701C92.3922 15.5009 83.4074 26.0748 84.2655 31.7788C84.4337 32.9078 84.7534 33.4471 85.1488 33.8767C86.9323 35.823 90.5162 34.6182 95.505 33.9273C98.6682 33.4892 103.262 32.8488 107.443 33.6745C108.427 33.8683 114.796 35.2164 118.699 40.3138C122.998 45.9251 123.04 54.4432 119.103 61.9839C121.164 59.6501 124.933 54.7465 126.464 47.5175C128.34 38.7045 125.808 31.703 124.58 28.4339Z" fill="#FFD632"/>
<path d="M111.616 69.1122C111.616 69.1122 133.287 55.2272 124.58 28.4428C117.454 6.53679 95.5555 3.28459 83.8028 2.69481C72.0501 2.10503 50.0927 3.21718 40.6703 24.2301C28.6568 51.0229 49.1252 65.801 49.1252 65.801C49.1252 65.801 55.4769 71.4208 79.5375 72.6172" stroke="black" stroke-width="2.0801" stroke-miterlimit="10" stroke-linecap="round" stroke-linejoin="round"/>
<path d="M56.8397 7.62366C56.8397 7.62366 50.2189 4.37989 45.331 8.57573C40.4432 12.7716 41.2172 17.8352 41.8481 19.2507C43.0764 21.9974 50.8498 27.2464 54.2654 25.0473C58.0512 22.604 54.6945 11.8364 54.6945 11.8364" fill="#FFD632"/>
<path d="M56.8397 7.62366C56.8397 7.62366 50.2189 4.37989 45.331 8.57573C40.4432 12.7716 41.2172 17.8352 41.8481 19.2507C43.0764 21.9974 50.8498 27.2464 54.2654 25.0473C58.0512 22.604 54.6945 11.8364 54.6945 11.8364" stroke="black" stroke-width="2.0801" stroke-miterlimit="10" stroke-linecap="round" stroke-linejoin="round"/>
<path d="M109.706 10.2438C109.706 10.2438 116.613 7.67406 121.063 12.3333C125.513 16.9926 124.243 21.9552 123.478 23.3033C121.988 25.9152 113.727 30.3722 110.555 27.8446C107.022 25.0389 111.439 14.6588 111.439 14.6588" fill="#FFD632"/>
<path d="M109.706 10.2438C109.706 10.2438 116.613 7.67406 121.063 12.3333C125.513 16.9926 124.243 21.9552 123.478 23.3033C121.988 25.9152 113.727 30.3722 110.555 27.8446C107.022 25.0389 111.439 14.6588 111.439 14.6588" stroke="black" stroke-width="2.0801" stroke-miterlimit="10" stroke-linecap="round" stroke-linejoin="round"/>
<path d="M64.7562 38.1155C64.7562 38.1155 67.6333 40.8706 70.3927 39.4972C73.1521 38.1239 73.9093 37.3067 76.6855 37.4415C79.4617 37.5847 80.4545 38.503 83.0624 40.146C85.6704 41.7889 88.4214 39.6489 88.4214 39.6489" stroke="black" stroke-width="2.0801" stroke-miterlimit="10" stroke-linecap="round" stroke-linejoin="round"/>
<path d="M81.3378 32.7567C81.3546 32.7398 81.3714 32.723 81.3883 32.7061C82.5661 31.4928 82.0361 29.496 80.4292 28.9989C79.4113 28.6787 78.2924 28.5439 77.4763 28.5017C76.6603 28.4596 75.533 28.4849 74.4898 28.6955C72.8409 29.0326 72.1173 30.9705 73.169 32.2933C73.1858 32.3101 73.2026 32.3354 73.211 32.3523C75.2469 34.88 79.0579 35.0737 81.3378 32.7567Z" fill="#2DC275" stroke="black" stroke-width="2.0801" stroke-miterlimit="10"/>
<path d="M63.2166 27.7098C62.7455 27.6845 62.3753 28.1142 62.4679 28.586C62.796 30.3301 64.2766 31.695 66.1275 31.7877C67.9783 31.8804 69.5935 30.6756 70.0815 28.9652C70.2161 28.5102 69.8964 28.0468 69.4169 28.0215L63.2166 27.7098Z" fill="black"/>
<path d="M93.3597 29.2854C93.8308 29.3107 94.1505 29.7741 94.0243 30.2291C93.528 31.9311 91.9127 33.1444 90.0703 33.0517C88.2195 32.959 86.7388 31.6025 86.4107 29.85C86.3266 29.3866 86.6883 28.9484 87.1594 28.9737L93.3597 29.2854Z" fill="black"/>
<path d="M61.9042 48.3186C62.5773 47.3666 62.3585 46.0438 61.4079 45.3697C61.3911 45.3613 61.3742 45.3445 61.3574 45.336C61.5004 45.2096 61.6266 45.0664 61.7444 44.8979C62.6025 43.6846 62.3165 41.9996 61.105 41.1402C59.8936 40.2808 58.211 40.5672 57.3529 41.7805C57.2856 41.8732 57.2351 41.9659 57.1762 42.0585C57.1005 41.9911 57.0248 41.9237 56.9407 41.8647C55.8638 41.098 54.3832 41.3508 53.6176 42.4293C52.8521 43.5077 53.1044 44.9906 54.1813 45.7573C54.3832 45.9005 54.6103 46.0101 54.8375 46.0859C54.6692 46.8021 54.93 47.5772 55.561 48.0237C56.3939 48.6135 57.538 48.4197 58.1353 47.594C58.2531 48.0743 58.5307 48.5124 58.9682 48.8242C59.902 49.4982 61.2228 49.2707 61.9042 48.3186Z" fill="white" stroke="black" stroke-width="2.0801" stroke-miterlimit="10" stroke-linecap="round" stroke-linejoin="round"/>
<path d="M41.0657 49.4141C33.898 54.0397 24.6271 64.0323 27.5547 71.3793C28.6821 74.2187 31.4919 76.2913 34.2093 76.9738C38.4073 78.027 42.0921 75.6763 45.4488 73.452C47.022 72.4156 62.2828 62.0944 59.7421 51.748C59.5487 50.9728 58.6148 47.5437 55.6535 45.9176C50.7152 43.1877 43.9513 47.5521 41.0657 49.4141Z" fill="#FFD632" stroke="black" stroke-width="2.0801" stroke-miterlimit="10" stroke-linecap="round" stroke-linejoin="round"/>
<path d="M76.9715 79.0374C96.8173 79.5766 108.166 75.465 112.44 73.4765L112.474 68.6234C108.553 70.3843 95.7069 75.2375 77.0893 74.7319C58.4718 74.2264 45.9115 68.6824 42.0921 66.7192L41.8649 71.5639C46.0209 73.7799 57.1258 78.4982 76.9715 79.0374Z" fill="#2DC275" stroke="black" stroke-width="2.0801" stroke-miterlimit="10" stroke-linecap="round" stroke-linejoin="round"/>
<path d="M65.1769 63.6949C64.7394 61.7234 62.7876 60.4848 60.819 60.923C60.7854 60.9314 60.7517 60.9398 60.7097 60.9567C60.7097 60.6281 60.676 60.2911 60.6003 59.954C60.0366 57.4433 57.5548 55.8677 55.0562 56.4322C52.5492 56.9967 50.976 59.4822 51.5397 61.9846C51.5818 62.1699 51.6406 62.3553 51.6995 62.5322C51.5229 62.5491 51.3546 62.5743 51.1779 62.608C48.957 63.1051 47.5688 65.3041 48.0652 67.5284C48.5616 69.7527 50.7573 71.1429 52.9783 70.6458C53.3989 70.5531 53.7943 70.3931 54.1477 70.1824C54.8627 71.2272 56.1583 71.7917 57.4707 71.4968C59.1869 71.1092 60.2638 69.4157 59.8852 67.6969C60.6339 68.1014 61.5257 68.253 62.4174 68.0508C64.3776 67.6211 65.6143 65.6664 65.1769 63.6949Z" fill="white" stroke="black" stroke-width="2.0801" stroke-miterlimit="10" stroke-linecap="round" stroke-linejoin="round"/>
<path d="M36.8929 72.5246L53.8111 66.4077L88.6906 69.8369L76.7781 77.0996L36.8929 72.5246Z" fill="#C1272D" stroke="black" stroke-width="2.0801" stroke-miterlimit="10" stroke-linecap="round" stroke-linejoin="round"/>
<path d="M55.1151 66.248C54.2065 64.445 52.0108 63.7204 50.2104 64.6303C50.1768 64.6472 50.1431 64.664 50.1179 64.6893C50.0337 64.3691 49.9244 64.049 49.7645 63.7457C48.612 61.454 45.8189 60.5272 43.5306 61.6815C41.2424 62.8357 40.3169 65.6329 41.4695 67.9246C41.5536 68.0931 41.6546 68.2616 41.7555 68.4133C41.5957 68.4723 41.4274 68.5397 41.2676 68.6155C39.2401 69.635 38.4241 72.112 39.442 74.1509C40.46 76.1814 42.9333 76.9987 44.9692 75.9792C45.3562 75.7854 45.7011 75.5327 45.9956 75.2462C46.9462 76.0887 48.3344 76.3162 49.5374 75.7096C51.1022 74.9176 51.7415 73.0051 50.9507 71.4295C51.7752 71.6402 52.6754 71.5728 53.4914 71.1599C55.3002 70.25 56.0237 68.051 55.1151 66.248Z" fill="white" stroke="black" stroke-width="2.0801" stroke-miterlimit="10" stroke-linecap="round" stroke-linejoin="round"/>
<path d="M61.6939 75.4987C62.7876 73.8052 62.3081 71.5388 60.6171 70.4435C60.5834 70.4266 60.5498 70.4098 60.5245 70.3845C60.7601 70.1486 60.9788 69.8958 61.1639 69.6009C62.5604 67.444 61.9463 64.5626 59.7926 63.1639C57.639 61.7653 54.7618 62.3804 53.3652 64.5373C53.2643 64.6974 53.1717 64.8659 53.0876 65.0344C52.953 64.9249 52.8184 64.8153 52.667 64.7142C50.7573 63.4757 48.2166 64.0233 46.9799 65.9275C45.7432 67.84 46.2901 70.3845 48.1914 71.623C48.5531 71.8589 48.9401 72.0274 49.3439 72.137C49.1 73.3755 49.6047 74.6983 50.732 75.4313C52.2043 76.3918 54.1729 75.9705 55.1319 74.4961C55.3675 75.3134 55.8807 76.0548 56.6547 76.5519C58.3456 77.6725 60.6003 77.1922 61.6939 75.4987Z" fill="white" stroke="black" stroke-width="2.0801" stroke-miterlimit="10" stroke-linecap="round" stroke-linejoin="round"/>
<path d="M72.7062 75.1281C72.967 73.1228 71.5537 71.2945 69.5514 71.0333C69.5178 71.0249 69.4757 71.0249 69.4421 71.0249C69.5514 70.7132 69.6356 70.3846 69.6776 70.0476C70.0057 67.5031 68.2054 65.1692 65.6647 64.8407C63.1241 64.5121 60.7937 66.3151 60.4656 68.8596C60.4404 69.0534 60.432 69.2387 60.432 69.4325C60.2637 69.3904 60.0955 69.3483 59.9188 69.3314C57.6642 69.0449 55.6031 70.6373 55.317 72.8953C55.031 75.1534 56.621 77.2176 58.8756 77.5041C59.3047 77.563 59.7253 77.5462 60.1375 77.4704C60.4488 78.7005 61.4836 79.6694 62.8128 79.8379C64.5543 80.0654 66.1443 78.8353 66.3798 77.0912C66.9435 77.7315 67.7259 78.1697 68.6429 78.2876C70.6199 78.5404 72.4454 77.1249 72.7062 75.1281Z" fill="white" stroke="black" stroke-width="2.0801" stroke-miterlimit="10" stroke-linecap="round" stroke-linejoin="round"/>
<path d="M67.9446 73.1313C68.2812 75.1197 70.1656 76.4594 72.151 76.1224C72.1847 76.1139 72.2268 76.1055 72.2604 76.0971C72.2436 76.4257 72.2604 76.7627 72.3193 77.0997C72.7484 79.6358 75.146 81.3377 77.6782 80.908C80.2105 80.4783 81.9099 78.0771 81.4808 75.541C81.4472 75.3472 81.4051 75.1703 81.3462 74.9849C81.5229 74.9765 81.6911 74.9597 81.8678 74.9344C84.1056 74.5552 85.6115 72.4236 85.2329 70.1824C84.8544 67.9413 82.7259 66.4331 80.4881 66.8122C80.0591 66.8881 79.6637 67.0229 79.2935 67.2082C78.6373 66.1298 77.367 65.4979 76.0462 65.7254C74.3131 66.0203 73.1522 67.6632 73.4382 69.3989C72.7147 68.9523 71.8314 68.7585 70.9312 68.9102C68.9458 69.2556 67.6081 71.1429 67.9446 73.1313Z" fill="white" stroke="black" stroke-width="2.0801" stroke-miterlimit="10" stroke-linecap="round" stroke-linejoin="round"/>
<path d="M76.7613 67.0388C76.9295 65.0251 75.432 63.2642 73.4214 63.0957C73.3877 63.0957 73.3457 63.0957 73.312 63.0957C73.413 62.7755 73.4803 62.4469 73.5055 62.1099C73.7158 59.5486 71.8145 57.3074 69.257 57.0967C66.6995 56.8861 64.4617 58.7903 64.243 61.3516C64.2262 61.5454 64.2262 61.7308 64.2346 61.9246C64.0663 61.8908 63.8896 61.8571 63.713 61.8403C61.4499 61.6549 59.4645 63.34 59.2794 65.6065C59.0943 67.873 60.7769 69.8614 63.04 70.0467C63.469 70.0804 63.8981 70.0467 64.2935 69.9541C64.6636 71.1673 65.7321 72.0857 67.0697 72.1953C68.8196 72.3385 70.3591 71.041 70.5021 69.2884C71.0994 69.8951 71.8987 70.3079 72.8157 70.3838C74.8347 70.5438 76.593 69.0525 76.7613 67.0388Z" fill="white" stroke="black" stroke-width="2.0801" stroke-miterlimit="10" stroke-linecap="round" stroke-linejoin="round"/>
<path d="M88.6906 69.8369C88.6906 69.8369 91.7276 95.8632 82.7259 114.745L71.0742 121.401L67.2043 83.5031L88.6906 69.8369Z" fill="#C1272D" stroke="black" stroke-width="2.0801" stroke-miterlimit="10" stroke-linecap="round" stroke-linejoin="round"/>
<path d="M36.893 72.5247C36.893 72.5247 33.7718 101.003 39.013 118.443C39.013 118.443 42.0164 118.738 46.2648 119.143L47.1818 73.7126L36.893 72.5247Z" fill="white"/>
<path d="M47.1818 73.7041L46.2648 119.134C49.1 119.404 52.4735 119.724 55.8891 120.044L56.8061 74.8078L47.1818 73.7041Z" fill="#C1272D"/>
<path d="M56.806 74.8079L55.889 120.044C59.2289 120.356 62.5941 120.668 65.5217 120.929L66.4303 75.92L56.806 74.8079Z" fill="white"/>
<path d="M76.7781 77.0996L66.4303 75.9116L65.5217 120.92C67.6838 121.114 69.6019 121.274 71.0742 121.392C71.0742 121.401 78.8476 99.1153 76.7781 77.0996Z" fill="#C1272D"/>
<path d="M36.893 72.5247C36.893 72.5247 33.7718 101.003 39.013 118.443C39.013 118.443 62.5352 120.718 71.0742 121.401C71.0742 121.401 78.8561 99.1153 76.7865 77.0997L36.893 72.5247Z" stroke="black" stroke-width="2.0801" stroke-miterlimit="10" stroke-linecap="round" stroke-linejoin="round"/>
<path d="M98.3316 90.3362C83.2391 89.4936 75.5161 95.5094 75.1544 101.727C74.759 108.535 79.9244 110.372 83.298 111.947C89.8768 115.014 101.739 111.787 104.919 110.153C117.992 103.438 118.985 94.6668 117.513 85.0703C116.781 80.3352 114.854 76.7122 114.627 76.2741C113.988 75.0608 113.29 74.0751 112.44 72.8955C112.44 72.8955 107.973 75.9118 101.411 77.0155" fill="#FFD632"/>
<path d="M98.3316 90.3362C83.2391 89.4936 75.5161 95.5094 75.1544 101.727C74.759 108.535 79.9244 110.372 83.298 111.947C89.8768 115.014 101.739 111.787 104.919 110.153C117.992 103.438 118.985 94.6668 117.513 85.0703C116.781 80.3352 114.854 76.7122 114.627 76.2741C113.988 75.0608 113.29 74.0751 112.44 72.8955C112.44 72.8955 107.973 75.9118 101.411 77.0155" stroke="black" stroke-width="2.0801" stroke-miterlimit="10" stroke-linecap="round" stroke-linejoin="round"/>
</g>
</g>
</svg>
